<svg width="26.000000000000004" height="208.00000000000003" xmlns="http://www.w3.org/2000/svg">

 <g>
  <title>background</title>
  <rect fill="none" id="canvas_background" height="602" width="802" y="-1" x="-1"/>
 </g>
 <g>
  <title>Layer 1</title>
  <circle id="svg_2" fill="#fff" r="11" cx="13" cy="143" fill-opacity="0.78"/>
  <circle id="svg_3" stroke-width="2" stroke="#000" fill="none" r="7" cx="13" cy="169"/>
  <circle id="svg_4" stroke-width="2" stroke="#000" fill="none" r="7" cx="13" cy="195"/>
  <circle id="svg_5" r="2.5" cy="195" cx="13"/>
  <path id="svg_6" d="m5,83l0,6l2,0l0,-4l4,0l0,-2l-6,0zm10,0l0,2l4,0l0,4l2,0l0,-6l-6,0zm-5,5l0,6l6,0l0,-6l-6,0zm-5,5l0,6l6,0l0,-2l-4,0l0,-4l-2,0zm14,0l0,4l-4,0l0,2l6,0l0,-6l-2,0z"/>
  <path id="svg_8" d="m5,57l0,6l2,0l0,-4l4,0l0,-2l-6,0zm10,0l0,2l4,0l0,4l2,0l0,-6l-6,0zm-10,10l0,6l6,0l0,-2l-4,0l0,-4l-2,0zm14,0l0,4l-4,0l0,2l6,0l0,-6l-2,0z"/>
  <path id="svg_9" d="m17,38l0,2l-8,0l0,-2l8,0z"/>
  <path id="svg_10" d="m12,9l0,3l-3,0l0,2l3,0l0,3l2,0l0,-3l3,0l0,-2l-3,0l0,-3l-2,0z"/>
  <path id="svg_11" d="m13,136l-6.125,6.125l4.375,0l0,7.875l3.5,0l0,-7.875l4.375,0l-6.125,-6.125z"/>
  <path id="svg_12" d="m10.428,173.33l0,-5.77l5,-2.89l0,5.77l-5,2.89zm1,-1.73l3,-1.73l-3.001,-1.74l0.001,3.47z"/>
  <g stroke="null" id="svg_33">
   <g stroke="null" id="svg_32">
    <path stroke="null" id="svg_31" d="m18.31588,110.09524l-3.88636,0c-0.73647,0 -1.42943,0.28674 -1.95022,0.80753l-6.81382,6.81445c-0.33206,0.33206 -0.52262,0.79159 -0.52262,1.26337c0,0.46932 0.19056,0.92884 0.52262,1.26093l4.03646,4.03646c0.33149,0.33146 0.79101,0.52202 1.26277,0.52202c0.46932,0 0.92884,-0.19056 1.26093,-0.52262l6.81442,-6.81442c0.52081,-0.52021 0.80756,-1.21317 0.80756,-1.94962l0,-3.88636c0,-0.84489 -0.68684,-1.53174 -1.53174,-1.53174zm-1.83809,4.9016c-0.84492,0 -1.53174,-0.68684 -1.53174,-1.53174c0,-0.84492 0.68684,-1.53174 1.53174,-1.53174s1.53174,0.68682 1.53174,1.53171c0,0.84492 -0.68684,1.53176 -1.53174,1.53176z"/>
   </g>
  </g>
  <g id="svg_34"/>
  <g id="svg_35"/>
  <g id="svg_36"/>
  <g id="svg_37"/>
  <g id="svg_38"/>
  <g id="svg_39"/>
  <g id="svg_40"/>
  <g id="svg_41"/>
  <g id="svg_42"/>
  <g id="svg_13"/>
  <g id="svg_14"/>
  <g id="svg_15"/>
  <g id="svg_16"/>
  <g id="svg_17"/>
  <g id="svg_18"/>
 </g>
</svg>